<?xml version="1.0" encoding="UTF-8" standalone="no"?>
<svg
   viewBox="0 0 1024 1024"
   style="enable-background:new 0 0 1024 1024"
   xml:space="preserve"
   fill="#ffffff"
   stroke="#ffffff"
   version="1.1"
   id="svg3"
   sodipodi:docname="icon_chrome.svg"
   inkscape:version="1.4 (86a8ad7, 2024-10-11)"
   xmlns:inkscape="http://www.inkscape.org/namespaces/inkscape"
   xmlns:sodipodi="http://sodipodi.sourceforge.net/DTD/sodipodi-0.dtd"
   xmlns="http://www.w3.org/2000/svg"
   xmlns:svg="http://www.w3.org/2000/svg"><defs
     id="defs3" /><sodipodi:namedview
     id="namedview3"
     pagecolor="#505050"
     bordercolor="#eeeeee"
     borderopacity="1"
     inkscape:showpageshadow="0"
     inkscape:pageopacity="0"
     inkscape:pagecheckerboard="0"
     inkscape:deskcolor="#505050"
     inkscape:zoom="0.78808594"
     inkscape:cx="512"
     inkscape:cy="512"
     inkscape:window-width="1920"
     inkscape:window-height="1009"
     inkscape:window-x="1912"
     inkscape:window-y="-8"
     inkscape:window-maximized="1"
     inkscape:current-layer="svg3" /><g
     id="SVGRepo_bgCarrier"
     stroke-width="0" /><g
     id="SVGRepo_tracerCarrier"
     stroke-linecap="round"
     stroke-linejoin="round" /><g
     id="SVGRepo_iconCarrier"
     transform="matrix(1.1960558,0,0,1.1960512,-100.38255,-100.38014)"><path
       d="m 938.67,512.01 c 0,-44.59 -6.82,-87.6 -19.54,-128 H 682.67 a 212.372,212.372 0 0 1 42.67,128 c 0.06,38.71 -10.45,76.7 -30.42,109.87 L 512.01,938.68 C 747.66,938.67 938.67,747.66 938.67,512.01 Z"
       fill="#ffffff"
       id="path1" /><path
       d="m 576.79,401.63 a 127.92,127.92 0 0 0 -63.56,-17.6 c -22.36,-0.22 -44.39,5.43 -63.89,16.38 -19.5,10.95 -35.79,26.82 -47.25,46.02 a 128.005,128.005 0 0 0 -2.16,127.44 l 1.24,2.13 a 127.906,127.906 0 0 0 46.36,46.61 127.907,127.907 0 0 0 63.38,17.44 c 22.29,0.2 44.24,-5.43 63.68,-16.33 a 127.94,127.94 0 0 0 47.16,-45.79 v -0.01 l 1.11,-1.92 a 127.984,127.984 0 0 0 0.29,-127.46 127.957,127.957 0 0 0 -46.36,-46.91 z"
       fill="#ffffff"
       id="path2" /><path
       d="M 394.45,333.96 A 213.336,213.336 0 0 1 512,298.67 H 881.58 A 426.503,426.503 0 0 0 512,85.34 425.598,425.598 0 0 0 340.26,121.32 425.644,425.644 0 0 0 197.64,223.54 l 118.14,204.63 a 213.397,213.397 0 0 1 78.67,-94.21 z M 512.01,938.68 H 512 Z M 414.76,701.95 A 213.284,213.284 0 0 1 325.22,615.14 L 142.48,298.6 c -36.35,62.81 -57.13,135.68 -57.13,213.42 0,203.81 142.93,374.22 333.95,416.55 h 0.04 L 537.53,723.86 A 213.315,213.315 0 0 1 414.76,701.95 Z"
       fill="#ffffff"
       id="path3" /></g></svg>
